<?xml version="1.0" encoding="utf-8"?>
<!-- Generator: Adobe Illustrator 25.0.1, SVG Export Plug-In . SVG Version: 6.00 Build 0)  -->
<svg version="1.1" id="Layer_1" xmlns="http://www.w3.org/2000/svg" xmlns:xlink="http://www.w3.org/1999/xlink" x="0px" y="0px"
	 viewBox="0 0 595.3 841.9" style="enable-background:new 0 0 595.3 841.9;" xml:space="preserve">
<style type="text/css">
	.st0{fill:#84C8D8;}
	.st1{fill:#F0F2F1;}
	.st2{fill:#404042;}
	.st3{fill:#CA7C11;}
	.st4{fill:#936037;}
	.st5{fill:#8AD2F3;}
	.st6{fill:#1B3B4C;}
	.st7{fill:#87CFE2;}
	.st8{fill:#996833;}
	.st9{opacity:0.18;}
	.st10{fill:#232020;}
	.st11{opacity:0.79;}
	.st12{fill:#EC6D66;}
	.st13{fill:#4F8441;}
	.st14{fill:#FAB32F;}
	.st15{fill:#B3D386;}
	.st16{fill:#B17F4A;}
</style>
<g id="XMLID_5898_">
	<g id="XMLID_5904_">
		<g id="XMLID_5905_">
			<g>
				<g>
					<g>
						<g>
							<rect x="244.4" y="417.1" class="st0" width="107.2" height="65.8"/>
						</g>
					</g>
				</g>
			</g>
		</g>
	</g>
	<g id="XMLID_5902_">
		<g id="XMLID_5903_">
			<g>
				<g>
					<g>
						<g>
							<rect x="244.4" y="417.1" class="st1" width="107.2" height="51.5"/>
						</g>
					</g>
				</g>
			</g>
		</g>
	</g>
	<g id="XMLID_5899_">
		<g id="XMLID_5900_">
			<g id="XMLID_5901_">
				<g>
					<g>
						<g>
							<g>
								<path class="st2" d="M351.6,481.5c-3.6,0-7.2,0-10.8,0c-8.5,0-17.1,0-25.6,0c-10.3,0-20.6,0-30.8,0c-8.9,0-17.9,0-26.8,0
									c-2.9,0-5.9,0-8.8,0c-1.3,0-2.9-0.2-4.2,0c-0.1,0-0.1,0-0.2,0c0.4,0.4,0.9,0.9,1.3,1.3c0-7.4,0-14.8,0-22.2
									c0-11.8,0-23.6,0-35.4c0-2.7,0-5.4,0-8.1c-0.4,0.4-0.9,0.9-1.3,1.3c3.6,0,7.1,0,10.7,0c8.5,0,17.1,0,25.6,0
									c10.3,0,20.6,0,30.8,0c8.9,0,17.9,0,26.8,0c2.9,0,5.9,0,8.8,0c1.3,0,2.9,0.2,4.2,0c0.1,0,0.1,0,0.2,0
									c-0.4-0.4-0.9-0.9-1.3-1.3c0,7.4,0,14.8,0,22.2c0,11.8,0,23.6,0,35.4c0,2.7,0,5.3,0,8.1c0,1.8,2.6,1.8,2.6,0
									c0-7.3,0-14.8,0-22.2c0-11.8,0-23.6,0-35.4c0-2.7,0-5.4,0-8.1c0-0.7-0.6-1.3-1.3-1.3c-3.6,0-7.1,0-10.7,0
									c-8.5,0-17.1,0-25.6,0c-10.3,0-20.6,0-30.8,0c-8.9,0-17.9,0-26.8,0c-4.3,0-8.7-0.2-13,0c-0.1,0-0.1,0-0.1,0
									c-0.7,0-1.3,0.6-1.3,1.3c0,7.4,0,14.8,0,22.2c0,11.8,0,23.6,0,35.4c0,2.7,0,5.4,0,8.1c0,0.7,0.5,1.4,1.2,1.4
									c3.6,0,7.1,0,10.7,0c8.5,0,17.1,0,25.6,0c10.3,0,20.6,0,30.8,0c8.9,0,17.9,0,26.8,0c4.3,0,8.7,0.2,13,0c0.1,0,0,0,0.2,0
									C353.2,484.2,353.2,481.5,351.6,481.5z"/>
							</g>
						</g>
					</g>
				</g>
			</g>
		</g>
	</g>
</g>
<g id="XMLID_5896_">
	<g id="XMLID_5897_">
		<g>
			<g>
				<g>
					<g>
						<path class="st0" d="M253.3,417.4l5.4-32.9h14.1l-1.8,32.9c0,0-0.5,8.8-8.8,8.8C253.8,426.3,253.3,417.4,253.3,417.4z"/>
					</g>
				</g>
			</g>
		</g>
	</g>
</g>
<g id="XMLID_5894_">
	<g id="XMLID_5895_">
		<g>
			<g>
				<g>
					<g>
						<path class="st0" d="M288.6,417.5v-32.9h17.7l0,32.9c0,0-0.3,8.9-8.8,8.9C288.9,426.3,288.6,417.5,288.6,417.5z"/>
					</g>
				</g>
			</g>
		</g>
	</g>
</g>
<g id="XMLID_5892_">
	<g id="XMLID_5893_">
		<g>
			<g>
				<g>
					<g>
						<path class="st0" d="M324,417.4l-0.5-32.9h14.6l3.6,32.9c0,0-0.4,7.5-7.8,8.7C326.5,427.3,324.1,420.6,324,417.4z"/>
					</g>
				</g>
			</g>
		</g>
	</g>
</g>
<g id="XMLID_5890_">
	<g id="XMLID_5891_">
		<g>
			<g>
				<g>
					<g>
						<path class="st3" d="M359.3,417.4l-6.9-32.9h-14.4l3.6,32.9c0,0,0,8.8,8.8,8.8C359.3,426.3,359.3,417.4,359.3,417.4z"/>
					</g>
				</g>
			</g>
		</g>
	</g>
</g>
<g id="XMLID_5884_">
	<g id="XMLID_5888_">
		<g id="XMLID_5889_">
			<g>
				<g>
					<g>
						<g>
							<rect x="322.8" y="430.2" class="st4" width="21.3" height="52.7"/>
						</g>
					</g>
				</g>
			</g>
		</g>
	</g>
	<g id="XMLID_5885_">
		<g id="XMLID_5886_">
			<g id="XMLID_5887_">
				<g>
					<g>
						<g>
							<g>
								<path class="st2" d="M344.1,481.5c-7.1,0-14.2,0-21.3,0c0.4,0.6,1,0.9,1.3,1.4c0-5.9,0-11.9,0-17.8c0-9.5,0-18.9,0-28.4
									c0-2.2,0-4.4,0-6.5c-0.4,0.4-0.9,1-1.3,1.4c7.1,0,14.1,0,21.2,0c-0.4-0.4-0.9-0.9-1.3-1.4c0,5.9,0,11.9,0,17.8
									c0,9.5,0,18.9,0,28.4c0,2.2,0,4.4,0,6.5c0,1.8,2.6,1.8,2.6,0c0-5.9,0-11.9,0-17.8c0-9.5,0-18.9,0-28.4c0-2.2,0-4.4,0-6.5
									c0-0.7-0.6-1.4-1.3-1.4c-7.1,0-14.1,0-21.2,0c-0.7,0-1.2,0.7-1.2,1.4c0,5.9,0,11.9,0,17.8c0,9.5,0,18.9,0,28.4
									c0,2.2,0,4.4,0,6.5c0,0.7,0.5,1.4,1.2,1.4c7.1,0,14.2,0,21.3,0C345.7,484.3,345.7,481.5,344.1,481.5z"/>
							</g>
						</g>
					</g>
				</g>
			</g>
		</g>
	</g>
</g>
<g id="XMLID_5867_">
	<g id="XMLID_5868_">
		<g>
			<g>
				<g>
					<g>
						<path class="st3" d="M272.8,384.5h15.8v32.9c0,0-0.9,8.7-8.8,8.8c-7.9,0.1-8.8-8.9-8.8-8.9L272.8,384.5z"/>
					</g>
				</g>
			</g>
		</g>
	</g>
</g>
<g id="XMLID_5865_">
	<g id="XMLID_5866_">
		<g>
			<g>
				<g>
					<g>
						<path class="st3" d="M306.3,384.5l0,32.9c0,0,0.4,9,8.8,8.9c8.4-0.1,8.8-8.9,8.8-8.9l-0.5-32.9H306.3z"/>
					</g>
				</g>
			</g>
		</g>
	</g>
</g>
<g id="XMLID_5862_">
	<g id="XMLID_5863_">
		<g id="XMLID_5864_">
			<g>
				<g>
					<g>
						<g>
							<path class="st3" d="M258.7,384.7c-0.8,4.7-1.6,9.4-2.3,14.1c-1,6-2,11.9-3,17.9c-0.4,2.3-0.8,4.4-2.2,6.3
								c-1.6,2.1-4.1,3.3-6.7,3.3c-8.2,0.3-8.2-9.1-8.2-9.1l8.8-32.6L258.7,384.7z"/>
						</g>
					</g>
				</g>
			</g>
		</g>
	</g>
	<g>
		<path class="st2" d="M360.6,417.1c-2-9.6-4-19.2-6-28.8c-0.3-1.4-0.6-2.7-0.8-4c-0.1-0.6-0.7-1-1.3-1c-4.8,0-9.6,0-14.4,0
			c-4.9,0-9.8,0-14.6,0c-5.7,0-11.4,0-17.1,0c-5.9,0-11.8,0-17.7,0c-5.3,0-10.6,0-15.8,0c-4.7,0-9.4,0-14.1,0c-0.1,0-0.1,0-0.2,0
			c-4.5,0-9,0-13.5,0c-0.6,0-1.1,0.4-1.3,1c-2.5,9.3-5,18.6-7.5,27.9c-0.4,1.5-0.9,3-1.2,4.5c-0.3,1.2,0,2.5,0.3,3.6
			c0.7,2.7,2.2,5.4,4.8,6.6c3.9,1.8,8.9,0.7,11.7-2.6c0.6-0.7,1-1.4,1.4-2.1c1.2,2.4,3.3,4.4,6,5.2c3.2,0.9,7,0.3,9.5-2
			c1-0.9,1.8-2,2.3-3.2c1.3,2.5,3.4,4.6,6.2,5.3c4.7,1.1,9.1-1.1,11.3-5.2c1.1,2.3,3.1,4.2,5.6,5c3.2,1,7.1,0.5,9.7-1.6
			c1.1-0.9,1.9-2,2.5-3.2c1.3,2.5,3.4,4.5,6.3,5c4.7,0.9,9.2-1,11.3-5.1c1.8,3.5,5.2,5.8,9.5,5.3c3.3-0.4,6.4-2.4,8.1-5.2
			c0.3,0.7,0.7,1.3,1.2,1.9c2.1,2.6,5.4,3.6,8.6,3.3c5.4-0.4,9.2-4.8,9.3-10.1C360.6,417.3,360.6,417.2,360.6,417.1z M251.7,418.6
			c-0.6,2.3-1.8,4.5-4,5.6c-1.7,0.9-3.9,1.1-5.8,0.5c-2.4-0.8-3.6-3.1-4.1-5.4c-0.2-0.7-0.1-1.1-0.2-1.9c0-0.1,0-0.2,0.1-0.2
			c0.4-1.5,0.8-3,1.2-4.5c1.5-5.4,2.9-10.8,4.4-16.2c0.9-3.5,1.9-7,2.8-10.5c3.7,0,7.4,0,11.1,0c-0.9,5.6-1.9,11.3-2.8,16.9
			c-0.4,2.5-0.9,5-1.3,7.6c-0.1,0.8-0.3,1.6-0.4,2.4c0,0,0,0.1,0,0.1c-0.2,1.3-0.4,2.6-0.6,3.9c-0.1,0.1-0.1,0.3-0.1,0.4
			C251.9,417.8,251.8,418.2,251.7,418.6z M269.6,417.5c0,0.1,0,0.2,0,0.2c0,0,0,0,0,0.1c-0.1,0.8-0.3,1.6-0.6,2.4
			c-0.9,2.2-2.5,4-4.9,4.6c-3.1,0.7-6.4-0.3-8.1-3.1c-0.6-0.9-0.9-2-1.2-3c-0.1-0.3-0.1-0.6-0.2-1c0-0.1,0-0.1,0-0.2
			c0.9-5.3,1.8-10.7,2.6-16c0.9-5.2,1.7-10.5,2.6-15.6c3.9,0,7.7,0,11.6,0c-0.4,7.5-0.8,14.9-1.3,22.4c-0.1,2.1-0.2,4.1-0.3,6.2
			c0,0.7-0.1,1.4-0.1,2.1C269.6,416.9,269.6,417.2,269.6,417.5C269.6,417.5,269.6,417.5,269.6,417.5z M287.2,417.6
			c-0.7,3.4-2.5,6.6-6.2,7.3c-4.3,0.8-7.4-2-8.5-5.9c-0.1-0.5-0.2-0.9-0.3-1.4c0.2-1.8,0.2-3.6,0.3-5.4c0.3-5.4,0.6-10.9,0.9-16.3
			c0.2-3.3,0.4-6.6,0.6-10c4.4,0,8.9,0,13.2,0c0,5.5,0,10.9,0,16.3c0,3.7,0,7.5,0,11.2c0,1.1,0,2.2,0,3.4c0,0.2,0,0.4,0,0.6
			C287.2,417.4,287.2,417.5,287.2,417.6L287.2,417.6C287.2,417.5,287.2,417.5,287.2,417.6z M305,417.7c0,0.1,0,0.2,0,0.3
			c0,0.1,0,0.2,0,0.2c0,0,0,0,0,0.1c-0.1,0.8-0.3,1.7-0.7,2.5c-0.9,2.2-2.7,3.8-5.1,4.2c-3.2,0.6-6.4-0.5-8-3.4
			c-0.5-0.9-0.8-1.8-1-2.8c-0.1-0.6-0.1-0.6-0.1-1.2c0-0.4,0-0.8,0-1.1c0-3.2,0-6.5,0-9.7c0-6.9,0-13.8-0.1-20.7c5,0,10,0,15,0
			c0,5.9,0,11.7,0,17.5c0,3.8,0,7.6,0,11.4c0,0.8,0,1.5,0,2.3c0,0.1,0,0.3,0,0.4C305,417.5,305,417.6,305,417.7z M322.5,418.3
			c-0.1,0.3-0.1,0.6-0.2,0.9c-0.2,0.8-0.5,1.5-0.9,2.2c-1,1.8-2.6,2.9-4.6,3.4c-4.4,0.9-7.8-1.5-8.9-5.7c-0.2-0.9-0.3-1.1-0.3-1.7
			c0-0.1,0-0.1,0-0.2c0.1-1.6,0-3.2,0-4.7c0-1.4,0-2.9,0-4.3c0-1,0-1.9,0-2.9c0-6.5,0-12.9,0-19.4c4.8,0,9.7,0,14.5,0
			c0.1,5.5,0.2,10.9,0.3,16.3c0,0.3,0,0.7,0,1c0.1,3.4,0.1,6.8,0.2,10.2c0,1.3,0,2.5,0.1,3.8c0,0.2,0,0.4,0,0.6c0,0,0,0,0,0
			c0,0,0,0,0,0.1C322.6,418.1,322.6,418.2,322.5,418.3z M340.2,418c-0.4,1.9-1.2,3.8-2.7,5.1c-2.4,2.1-6.5,2.7-9.2,0.7
			c-1.9-1.4-3-4-3.1-6.3c-0.1-3.6-0.1-7.2-0.2-10.8c-0.1-6.9-0.1-13.9-0.3-20.8c4,0,8.1,0,12.1,0c0.7,6.9,1.5,13.6,2.2,20.4
			c0.2,1.5,0.3,3.1,0.5,4.6c0.2,2.2,0.5,4.5,0.7,6.8C340.3,417.9,340.3,417.6,340.2,418z M357.2,420.8c-1,2.3-3,3.8-5.6,4.1
			c-2.8,0.3-5.8-0.5-7.4-3c-0.8-1.3-1.2-3-1.3-4.3c0-0.1,0-0.2,0-0.2c0-1.5-0.2-3-0.4-4.6c-0.6-6-1.4-11.9-2-17.9c0,0,0-0.1,0-0.1
			c-0.3-3-0.6-6-1-9c3.9,0,7.9,0,11.8,0c1.9,9.3,3.9,18.6,5.8,27.8c0.3,1.3,0.5,2.6,0.8,3.8C358,418.6,357.7,419.7,357.2,420.8z"/>
	</g>
</g>
<g id="XMLID_5859_">
	<g id="XMLID_5860_">
		<g id="XMLID_5861_">
			<g>
				<g>
					<g>
						<g>
							<g>
								<rect x="249.7" y="432.3" class="st5" width="64.6" height="31"/>
							</g>
						</g>
					</g>
				</g>
			</g>
			<g>
				<g>
					<g>
						<g>
							<g>
								<path class="st2" d="M314.2,463.9h-64.5c-0.3,0-0.6-0.3-0.6-0.6v-31c0-0.3,0.3-0.5,0.6-0.5h64.5c0.3,0,0.7,0.2,0.7,0.5v31
									C314.9,463.6,314.5,463.9,314.2,463.9z M250.3,462.7h63.4v-29.8h-63.4V462.7z"/>
							</g>
						</g>
					</g>
				</g>
			</g>
		</g>
	</g>
</g>
<g id="XMLID_5856_">
	<g id="XMLID_5857_">
		<g id="XMLID_5858_">
			<g>
				<g>
					<g>
						<g>
							<rect x="325.7" y="464.5" class="st6" width="15.6" height="15"/>
						</g>
					</g>
				</g>
			</g>
		</g>
	</g>
</g>
<g id="XMLID_5853_">
	<g id="XMLID_5854_">
		<g id="XMLID_5855_">
			<g>
				<g>
					<g>
						<g>
							<rect x="325.7" y="433.1" class="st7" width="15.6" height="3"/>
						</g>
					</g>
				</g>
			</g>
		</g>
	</g>
	<g>
		<g>
			<g>
				<g>
					<g>
						<path class="st2" d="M341.9,433c0-0.4-0.2-0.7-0.6-0.7c-5.2,0-10.4,0-15.6,0c-0.4,0-0.6,0.3-0.6,0.7c0,1,0,2,0,3
							c0,0.4,0.3,0.6,0.6,0.6c5.2,0,10.4,0,15.6,0c0.2,0,0.3-0.1,0.4-0.2c0,0,0,0,0,0c0,0,0,0,0,0c0.1-0.1,0.1-0.2,0.1-0.4
							C341.9,435,341.9,434,341.9,433z M340.7,435.3c-4.7,0-9.5,0-14.2,0c0-0.4,0-1,0-1.6c4.7,0,9.5,0,14.2,0
							C340.7,434.3,340.7,434.9,340.7,435.3z"/>
					</g>
				</g>
			</g>
		</g>
	</g>
</g>
<g id="XMLID_5850_">
	<g id="XMLID_5851_">
		<g id="XMLID_5852_">
			<g>
				<g>
					<g>
						<g>
							<rect x="325.7" y="437.9" class="st6" width="15.6" height="16.4"/>
						</g>
					</g>
				</g>
			</g>
		</g>
	</g>
</g>
<g id="XMLID_5845_">
	<g id="XMLID_5849_">
		<g>
			<g>
				<g>
					<g>
						<path class="st1" d="M343.1,459.3c0,0.2-0.2,0.4-0.4,0.4h-4.4c-0.2,0-0.4-0.2-0.4-0.4V459c0-0.2,0.2-0.4,0.4-0.4h4.4
							c0.2,0,0.4,0.2,0.4,0.4V459.3z"/>
					</g>
				</g>
			</g>
		</g>
	</g>
	<g id="XMLID_5846_">
		<g>
			<g>
				<g>
					<g>
						<path class="st2" d="M337.4,459.3c0-0.5,0.4-0.9,0.9-0.9h4c0.5,0,0.9,0.4,0.9,0.9s-0.4,0.9-0.9,0.9h-4
							C337.8,460.2,337.4,459.8,337.4,459.3z M342.7,459.2c0-0.2-0.2-0.4-0.4-0.4h-4c-0.2,0-0.4,0.2-0.4,0.4c0,0.2,0.2,0.4,0.4,0.4
							h4C342.6,459.6,342.7,459.4,342.7,459.2z"/>
					</g>
				</g>
			</g>
		</g>
	</g>
</g>
<g id="XMLID_5839_">
	<g id="XMLID_5843_">
		<g id="XMLID_5844_">
			<g>
				<g>
					<g>
						<g>
							<rect x="238.1" y="378.4" class="st8" width="119.3" height="5.3"/>
						</g>
					</g>
				</g>
			</g>
		</g>
	</g>
	<g id="XMLID_5840_">
		<g id="XMLID_5841_">
			<g id="XMLID_5842_">
				<g>
					<g>
						<g>
							<g>
								<path class="st2" d="M317,382.4c-11.5,0-23,0-34.5,0c-9.9,0-19.9,0-29.8,0c-3.3,0-6.6,0-9.9,0c-1.5,0-3.2-0.2-4.7,0
									c-0.1,0-0.2,0-0.2,0c0.4,0.4,0.9,0.9,1.3,1.3c0-1.8,0-3.6,0-5.4c-0.4,0.4-0.8,0.9-1.2,1.3c4,0,7.9,0,11.9,0
									c9.5,0,19,0,28.5,0c11.5,0,23,0,34.5,0c9.9,0,19.9,0,29.8,0c4.8,0,9.7,0.2,14.5,0c0.1,0,0.2,0,0.2,0c1.8,0,1.8-2.6,0-2.6
									c-3.9,0-7.8,0-11.8,0c-9.5,0-19,0-28.5,0c-11.5,0-23,0-34.5,0c-9.9,0-19.9,0-29.8,0c-4.8,0-9.7-0.2-14.5,0
									c-0.1,0-0.1,0-0.2,0c-0.7,0-1.3,0.6-1.3,1.3c0,1.8,0,3.6,0,5.4c0,0.7,0.6,1.4,1.3,1.4c4,0,7.9,0,11.9,0c9.5,0,19,0,28.5,0
									c11.5,0,23,0,34.5,0c9.9,0,19.9,0,29.8,0c4.8,0,9.7,0.2,14.5,0c0.1,0,0.1,0,0.2,0c0.7,0,1.3-0.6,1.3-1.3c0-1.8,0-3.6,0-5.3
									c0-1.8-2.6-1.8-2.6,0c0,1.8,0,3.5,0,5.3c0.4-0.4,0.8-0.8,1.3-1.4c-4,0-7.9,0-11.9,0"/>
							</g>
						</g>
					</g>
				</g>
			</g>
		</g>
	</g>
</g>
<g id="XMLID_5824_" class="st9">
	<g id="XMLID_5825_">
		<g id="XMLID_5826_">
			<g>
				<g>
					<g>
						<g>
							<path class="st10" d="M244.1,426.3c4.9,0,8.8-3.9,8.8-8.8c0,4.9,4,8.8,8.8,8.8c4.9,0,8.8-4,8.8-8.8c0,4.9,4,8.8,8.8,8.8
								c4.9,0,8.8-4,8.8-8.8c0,4.9,4,8.8,8.8,8.8c4.9,0,8.8-4,8.8-8.8c0,4.9,4,8.8,8.8,8.8c4.9,0,8.8-4,8.8-8.8c0,4.9,4,8.8,8.8,8.8
								c4.9,0,8.8-4,8.8-8.8c0,4.9,4,8.8,8.8,8.8c4.9,0,8.8-4,8.8-8.9l-0.1-0.3h-123C235.9,417.1,235.3,426.3,244.1,426.3z"/>
						</g>
					</g>
				</g>
			</g>
		</g>
	</g>
</g>
<g id="XMLID_5820_">
	<g id="XMLID_5821_">
		<g id="XMLID_5822_">
			<g id="XMLID_5823_">
				<g>
					<g>
						<g>
							<g>
								<path class="st2" d="M237.5,490c0,0,0-4.7,0-7.1c-0.4,0.4-0.8,0.8-1.3,1.4c4.1,0,8.2,0,12.3,0c9.8,0,19.6,0,29.4,0
									c11.9,0,23.8,0,35.6,0c10.3,0,20.5,0,30.8,0c3.4,0,6.8,0,10.2,0c1.5,0,3.3,0.2,4.8,0c0.1,0,0.2,0,0.2,0
									c-0.4-0.4-0.9-0.9-1.3-1.3c0,2.4,0,4.7,0,7.1c0,1.8,2.6,1.8,2.6,0c0-2.4,0-4.7,0-7.1c0-0.7-0.6-1.4-1.3-1.4
									c-4.1,0-8.2,0-12.3,0c-9.8,0-19.6,0-29.4,0c-11.9,0-23.8,0-35.6,0c-10.3,0-20.5,0-30.8,0c-5,0-10-0.2-15,0
									c-0.1,0-0.1,0-0.2,0c-0.7,0-1.3,0.6-1.3,1.3c0,2.4,0,4.7,0,7.1C234.9,491.8,237.5,491.8,237.5,490
									C237.5,490,237.5,491.8,237.5,490z"/>
							</g>
						</g>
					</g>
				</g>
			</g>
		</g>
	</g>
</g>
<g>
	<g>
		<g>
			<g>
				<g>
					<rect x="250.3" y="458.4" class="st1" width="63.4" height="4.1"/>
				</g>
			</g>
		</g>
	</g>
</g>
<g>
	<g>
		<g>
			<g>
				<g>
					<rect x="250.3" y="458" class="st2" width="64" height="1.2"/>
				</g>
			</g>
		</g>
	</g>
</g>
<g>
	<g>
		<g>
			<g>
				<g>
					<rect x="250.3" y="444.2" class="st2" width="64" height="1.2"/>
				</g>
			</g>
		</g>
	</g>
</g>
<g class="st11">
	<g>
		<g>
			<g>
				<g>
					<g>
						<rect x="251.9" y="446.9" class="st12" width="2.6" height="10.5"/>
					</g>
				</g>
			</g>
		</g>
	</g>
	<g>
		<g>
			<g>
				<g>
					<g>
						<rect x="254.5" y="446.9" class="st12" width="2.8" height="10.5"/>
					</g>
				</g>
			</g>
		</g>
	</g>
	<g>
		<g>
			<g>
				<g>
					<g>
						<rect x="257.2" y="446.9" class="st12" width="2.6" height="10.5"/>
					</g>
				</g>
			</g>
		</g>
	</g>
	<g>
		<g>
			<g>
				<g>
					<g>
						<rect x="259.8" y="446.9" class="st12" width="2.8" height="10.5"/>
					</g>
				</g>
			</g>
		</g>
	</g>
	<g>
		<g>
			<g>
				<g>
					<g>
						<rect x="262.5" y="446.9" class="st12" width="2.6" height="10.5"/>
					</g>
				</g>
			</g>
		</g>
	</g>
	<g>
		<g>
			<g>
				<g>
					<g>
						<g>
							
								<rect x="267.1" y="447" transform="matrix(0.9637 -0.2671 0.2671 0.9637 -111.0424 88.1271)" class="st12" width="2.7" height="10.4"/>
						</g>
					</g>
				</g>
			</g>
		</g>
		<g>
			<g>
				<g>
					<g>
						<g>
							<path class="st2" d="M271.7,456.8l-2.8-10.1c-0.1-0.3-0.4-0.5-0.7-0.4l-2.4,0.6c0-0.3-0.3-0.6-0.6-0.6h-2.7h-2.7h-2.7h-2.7
								h-2.7c-0.3,0-0.5,0.3-0.5,0.7v10.4c0,0.3,0.2,0.5,0.5,0.5h2.7h2.7h2.7h2.7h2.7c0.3,0,0.5-0.2,0.5-0.5V450l2.2,7.8
								c0.1,0.3,0.3,0.4,0.6,0.4c0.1,0,0.1,0,0.2,0l2.6-0.7c0.2,0,0.3-0.1,0.4-0.3C271.7,457.1,271.7,456.9,271.7,456.8z
								 M252.5,447.5h1.4v9.3h-1.4V447.5z M255,447.5h1.6v9.3H255V447.5z M257.8,447.5h1.4v9.3h-1.4V447.5z M260.4,447.5h1.6v9.3
								h-1.6V447.5z M264.5,456.8h-1.4v-9.3h1.4V456.8z M268.9,456.9l-2.5-8.9l1.4-0.4l2.5,8.9L268.9,456.9z"/>
						</g>
					</g>
				</g>
			</g>
		</g>
	</g>
</g>
<g class="st11">
	<g>
		<g>
			<g>
				<g>
					<g>
						<rect x="252.9" y="434.9" class="st12" width="2.2" height="9.1"/>
					</g>
				</g>
			</g>
		</g>
	</g>
	<g>
		<g>
			<g>
				<g>
					<g>
						<rect x="255" y="434.9" class="st12" width="2.4" height="9.1"/>
					</g>
				</g>
			</g>
		</g>
	</g>
	<g>
		<g>
			<g>
				<g>
					<g>
						<rect x="257.4" y="434.9" class="st12" width="2.4" height="9.1"/>
					</g>
				</g>
			</g>
		</g>
	</g>
	<g>
		<g>
			<g>
				<g>
					<g>
						<rect x="259.8" y="434.9" class="st12" width="2.4" height="9.1"/>
					</g>
				</g>
			</g>
		</g>
	</g>
	<g>
		<g>
			<g>
				<g>
					<g>
						<rect x="262.2" y="434.9" class="st12" width="2.4" height="9.1"/>
					</g>
				</g>
			</g>
		</g>
	</g>
	<g>
		<g>
			<g>
				<g>
					<g>
						<g>
							
								<rect x="266.1" y="434.9" transform="matrix(0.9637 -0.2671 0.2671 0.9637 -107.6654 87.3528)" class="st12" width="2.3" height="9.1"/>
						</g>
					</g>
				</g>
			</g>
		</g>
		<g>
			<g>
				<g>
					<g>
						<g>
							<path class="st2" d="M270.2,443.4l-2.4-8.8c-0.1-0.3-0.4-0.4-0.6-0.4l-2.1,0.6c0-0.3-0.2-0.4-0.5-0.4h-2.3h-2.3h-2.3h-2.3
								h-2.3c-0.3,0-0.5,0.1-0.5,0.4v9.1c0,0.3,0.2,0.5,0.5,0.5h2.3h2.3h2.3h2.3h2.3c0.3,0,0.4-0.2,0.4-0.5v-6.6l1.9,6.8
								c0.1,0.2,0.3,0.4,0.5,0.4c0,0,0.1,0,0.1,0l2.3-0.6c0.1,0,0.2-0.1,0.3-0.2C270.2,443.7,270.2,443.6,270.2,443.4z M253.3,435.5
								h1.4v8.1h-1.4V435.5z M255.6,435.5h1.4v8.1h-1.4V435.5z M258,435.5h1.2v8.1H258V435.5z M260.4,435.5h1.2v8.1h-1.2V435.5z
								 M263.9,443.6h-1.2v-8.1h1.2V443.6z M267.8,443.6l-2.2-7.8l1.3-0.3l2.2,7.8L267.8,443.6z"/>
						</g>
					</g>
				</g>
			</g>
		</g>
	</g>
</g>
<g class="st11">
	<g>
		<g>
			<g>
				<g>
					<g>
						<rect x="270.6" y="434.9" class="st12" width="2.4" height="9.1"/>
					</g>
				</g>
			</g>
		</g>
	</g>
	<g>
		<g>
			<g>
				<g>
					<g>
						<rect x="273" y="434.9" class="st12" width="2.4" height="9.1"/>
					</g>
				</g>
			</g>
		</g>
	</g>
	<g>
		<g>
			<g>
				<g>
					<g>
						<rect x="275.4" y="434.9" class="st12" width="2.4" height="9.1"/>
					</g>
				</g>
			</g>
		</g>
	</g>
	<g>
		<g>
			<g>
				<g>
					<g>
						<rect x="277.8" y="434.9" class="st12" width="2.4" height="9.1"/>
					</g>
				</g>
			</g>
		</g>
	</g>
	<g>
		<g>
			<g>
				<g>
					<g>
						<g>
							<path class="st2" d="M279.1,434.5h-8.4c-0.3,0-0.4,0.1-0.4,0.4v9.1c0,0.3,0.2,0.5,0.4,0.5h8.4c0.7,0,1.4-0.6,1.4-1.3v-7.6
								C280.5,435,279.8,434.5,279.1,434.5z M272.4,443.6h-1.2v-8.1h1.2V443.6z M274.8,443.6h-1.2v-8.1h1.2V443.6z M277.2,443.6H276
								v-8.1h1.2V443.6z M279.5,443.6h-1.4v-8.1h1.4V443.6z"/>
						</g>
					</g>
				</g>
			</g>
		</g>
	</g>
</g>
<g class="st11">
	<g>
		<g>
			<g>
				<g>
					<g>
						<path class="st2" d="M310.5,457.4h-10.9c-0.7,0-1.3-0.6-1.3-1.3c0-0.7,0.5-1.3,1.3-1.3h10.9v-0.6h-10.9c-1,0-1.9,0.8-1.9,1.9
							s0.9,1.9,1.9,1.9h10.9V457.4z"/>
					</g>
				</g>
			</g>
		</g>
	</g>
	<g>
		<g>
			<g>
				<g>
					<g>
						<path class="st13" d="M300.2,455.6h10.5v-0.8h-11.1c-0.8,0-1.3,0.6-1.3,1.3c0,0.7,0.5,1.3,1.3,1.3h11.1v-0.8h-10.5
							c-0.3,0-0.5-0.2-0.5-0.5C299.7,455.8,299.9,455.6,300.2,455.6z"/>
					</g>
				</g>
			</g>
		</g>
	</g>
	<g>
		<g>
			<g>
				<g>
					<g>
						<path class="st1" d="M300.2,455.6c-0.3,0-0.5,0.2-0.5,0.5c0,0.3,0.2,0.5,0.5,0.5h10.5v-1H300.2z"/>
					</g>
				</g>
			</g>
		</g>
	</g>
	<g>
		<g>
			<g>
				<g>
					<g>
						<path class="st2" d="M310.6,454.8h-0.5v-0.6h0.5c0.2,0,0.3,0.1,0.3,0.3l0,0C310.9,454.7,310.8,454.8,310.6,454.8z"/>
					</g>
				</g>
			</g>
		</g>
	</g>
	<g>
		<g>
			<g>
				<g>
					<g>
						<path class="st2" d="M310.6,458h-0.5v-0.6h0.5c0.2,0,0.3,0.1,0.3,0.3l0,0C310.9,457.9,310.8,458,310.6,458z"/>
					</g>
				</g>
			</g>
		</g>
	</g>
</g>
<g class="st11">
	<g>
		<g>
			<g>
				<g>
					<g>
						<path class="st2" d="M310.5,453.7h-10.9c-0.7,0-1.3-0.7-1.3-1.4s0.5-1.4,1.3-1.4h10.9v-0.6h-10.9c-1,0-1.9,0.9-1.9,2
							c0,1,0.9,2,1.9,2h10.9V453.7z"/>
					</g>
				</g>
			</g>
		</g>
	</g>
	<g>
		<g>
			<g>
				<g>
					<g>
						<path class="st13" d="M300.2,451.7h10.5v-0.8h-11.1c-0.8,0-1.3,0.7-1.3,1.4c0,0.7,0.5,1.4,1.3,1.4h11.1v-0.8h-10.5
							c-0.3,0-0.5-0.3-0.5-0.6C299.7,452,299.9,451.7,300.2,451.7z"/>
					</g>
				</g>
			</g>
		</g>
	</g>
	<g>
		<g>
			<g>
				<g>
					<g>
						<path class="st1" d="M300.2,451.7c-0.3,0-0.5,0.3-0.5,0.6c0,0.3,0.2,0.6,0.5,0.6h10.5v-1.2H300.2z"/>
					</g>
				</g>
			</g>
		</g>
	</g>
	<g>
		<g>
			<g>
				<g>
					<g>
						<path class="st2" d="M310.6,450.9h-0.5v-0.6h0.5c0.2,0,0.3,0.1,0.3,0.3l0,0C310.9,450.8,310.8,450.9,310.6,450.9z"/>
					</g>
				</g>
			</g>
		</g>
	</g>
	<g>
		<g>
			<g>
				<g>
					<g>
						<path class="st2" d="M310.6,454.2h-0.5v-0.6h0.5c0.2,0,0.3,0.1,0.3,0.3l0,0C310.9,454.1,310.8,454.2,310.6,454.2z"/>
					</g>
				</g>
			</g>
		</g>
	</g>
</g>
<g id="XMLID_5817_">
	<g id="XMLID_5818_">
		<g id="XMLID_5819_">
			<g>
				<g>
					<g>
						<g>
							<path class="st1" d="M257.7,450.2c5.1-3.7,10.2-7.4,15.4-11.1c0.7-0.5,0-1.6-0.7-1.1c-5.1,3.7-10.2,7.4-15.4,11.1
								C256.4,449.6,257.1,450.7,257.7,450.2L257.7,450.2z"/>
						</g>
					</g>
				</g>
			</g>
		</g>
	</g>
</g>
<g id="XMLID_5814_">
	<g id="XMLID_5815_">
		<g id="XMLID_5816_">
			<g>
				<g>
					<g>
						<g>
							<path class="st1" d="M292.6,452.1c5.1-3.7,10.2-7.4,15.4-11.1c0.7-0.5,0-1.6-0.7-1.1c-5.1,3.7-10.2,7.4-15.4,11.1
								C291.3,451.5,291.9,452.6,292.6,452.1L292.6,452.1z"/>
						</g>
					</g>
				</g>
			</g>
		</g>
	</g>
</g>
<g id="XMLID_5811_">
	<g id="XMLID_5812_">
		<g id="XMLID_5813_">
			<g>
				<g>
					<g>
						<g>
							<path class="st1" d="M298.6,455c3.5-2.5,6.9-5,10.4-7.5c0.7-0.5,0-1.6-0.7-1.1c-3.5,2.5-6.9,5-10.4,7.5
								C297.3,454.4,298,455.5,298.6,455L298.6,455z"/>
						</g>
					</g>
				</g>
			</g>
		</g>
	</g>
</g>
<g class="st11">
	<g>
		<g>
			<g>
				<g>
					<g>
						<rect x="274.2" y="446.5" class="st14" width="9.5" height="11.5"/>
					</g>
				</g>
			</g>
		</g>
	</g>
	<g>
		<g>
			<g>
				<g>
					<g>
						<path class="st2" d="M283.6,458.6h-9.5c-0.3,0-0.5-0.2-0.5-0.6v-11.6c0-0.3,0.2-0.5,0.5-0.5h9.5c0.3,0,0.7,0.2,0.7,0.5V458
							C284.3,458.4,283.9,458.6,283.6,458.6z M274.8,457.4h8.3v-10.3h-8.3V457.4z"/>
					</g>
				</g>
			</g>
		</g>
	</g>
</g>
<g>
	<g>
		<g>
			<g>
				<g>
					<g>
						<g>
							<g>
								<path class="st13" d="M249.6,458.7c0,11.3-2.1,20.4-4.8,20.4s-4.8-9.2-4.8-20.4c0-13.1,4.8-20.4,4.8-20.4
									S249.6,445.4,249.6,458.7z"/>
							</g>
						</g>
					</g>
				</g>
			</g>
		</g>
		<g>
			<g>
				<g>
					<g>
						<g>
							<g>
								<path class="st2" d="M244.8,479.6c-3.4,0-5.3-10.8-5.3-20.9c0-13.1,4.7-20.4,4.9-20.7l0.4-0.7l0.4,0.7
									c0.2,0.3,4.9,7.4,4.9,20.7C250.1,468.8,248.2,479.6,244.8,479.6z M244.8,439.2c-1.2,2.2-4.3,9-4.3,19.4
									c0,12.4,2.5,20,4.3,20c1.8,0,4.3-7.6,4.3-20C249,448.1,245.9,441.4,244.8,439.2z"/>
							</g>
						</g>
					</g>
				</g>
			</g>
		</g>
	</g>
	<g>
		<g>
			<g>
				<g>
					<g>
						<g>
							<g>
								<path class="st2" d="M244.8,476.2c-0.3,0-0.6-0.2-0.6-0.5v-27.9c0-0.3,0.3-0.5,0.6-0.5c0.3,0,0.6,0.2,0.6,0.5v27.9
									C245.4,476,245.1,476.2,244.8,476.2z"/>
							</g>
						</g>
					</g>
				</g>
			</g>
		</g>
	</g>
</g>
<g>
	<g>
		<g>
			<g>
				<g>
					<g>
						<g>
							<g>
								<path class="st15" d="M254.1,460c0,7.2-1.6,13-3.7,13c-2,0-3.7-5.8-3.7-13c0-8.3,3.7-13,3.7-13S254.1,451.5,254.1,460z"/>
							</g>
						</g>
					</g>
				</g>
			</g>
		</g>
		<g>
			<g>
				<g>
					<g>
						<g>
							<g>
								<path class="st2" d="M250.5,473.2c-2.6,0-4-6.8-4-13.3c0-8.3,3.6-12.9,3.7-13.1l0.3-0.4l0.3,0.4c0.2,0.2,3.7,4.7,3.7,13.1
									C254.5,466.4,253.1,473.2,250.5,473.2z M250.5,447.6c-0.9,1.4-3.3,5.7-3.3,12.3c0,7.9,1.9,12.7,3.3,12.7
									c1.4,0,3.3-4.8,3.3-12.7C253.7,453.3,251.4,449,250.5,447.6z"/>
							</g>
						</g>
					</g>
				</g>
			</g>
		</g>
	</g>
	<g>
		<g>
			<g>
				<g>
					<g>
						<g>
							<g>
								<path class="st2" d="M250.5,471.1c-0.2,0-0.4-0.1-0.4-0.3v-17.7c0-0.2,0.2-0.3,0.4-0.3c0.2,0,0.4,0.1,0.4,0.3v17.7
									C250.9,471,250.7,471.1,250.5,471.1z"/>
							</g>
						</g>
					</g>
				</g>
			</g>
		</g>
	</g>
</g>
<g>
	<g>
		<g>
			<g>
				<g>
					<g>
						<g>
							<polygon class="st4" points="252.7,482.3 240.6,482.3 238.8,466.7 254,466.7 							"/>
						</g>
					</g>
				</g>
			</g>
		</g>
		<g>
			<g>
				<g>
					<g>
						<g>
							<path class="st2" d="M253,482.5h-12.7l-1.9-16h15.9L253,482.5z M240.9,481.9h11.6l1.3-14.8h-14.6L240.9,481.9z"/>
						</g>
					</g>
				</g>
			</g>
		</g>
	</g>
	<g>
		<g>
			<g>
				<g>
					<g>
						<path class="st2" d="M252.7,482.7h-12.1c-0.2,0-0.4-0.2-0.5-0.4l-1.8-15.5c0-0.1,0-0.2,0.1-0.4c0.1-0.1,0.2-0.1,0.4-0.1H254
							c0.1,0,0.3,0,0.4,0.1c0.1,0.1,0.1,0.2,0.1,0.4l-1.3,15.5C253.2,482.5,253,482.7,252.7,482.7z M241,481.7h11.3l1.2-14.4h-14.2
							L241,481.7z"/>
					</g>
				</g>
			</g>
		</g>
	</g>
</g>
<g>
	<g>
		<g>
			<g>
				<g>
					<g>
						<g>
							<rect x="236.7" y="464.7" class="st16" width="19.5" height="2.2"/>
						</g>
					</g>
				</g>
			</g>
		</g>
		<g>
			<g>
				<g>
					<g>
						<g>
							<path class="st16" d="M256.4,467.3h-19.9v-3h19.9V467.3z M237.1,466.7h18.8v-1.8h-18.8V466.7z"/>
						</g>
					</g>
				</g>
			</g>
		</g>
	</g>
	<g>
		<g>
			<g>
				<g>
					<g>
						<path class="st16" d="M256.6,466.8c0,0.3-0.2,0.5-0.5,0.5h-19.4c-0.3,0-0.5-0.2-0.5-0.5v-2.2c0-0.3,0.2-0.5,0.5-0.5h19.4
							c0.3,0,0.5,0.2,0.5,0.5V466.8z M237.1,466.5h18.6v-1.4h-18.6V466.5z"/>
					</g>
				</g>
			</g>
		</g>
	</g>
</g>
</svg>
