<?xml version="1.0" encoding="utf-8"?>
<!-- Generator: Adobe Illustrator 25.0.1, SVG Export Plug-In . SVG Version: 6.00 Build 0)  -->
<svg version="1.1" xmlns="http://www.w3.org/2000/svg" xmlns:xlink="http://www.w3.org/1999/xlink" x="0px" y="0px"
	 viewBox="0 0 750 500" style="enable-background:new 0 0 750 500;" xml:space="preserve">
<style type="text/css">
	.st0{fill:#53A0AD;}
	.st1{fill:#60A5A5;}
	.st2{fill:#296568;}
	.st3{fill:#84C8D8;}
	.st4{fill:#3B414F;}
	.st5{fill:#2B303A;}
	.st6{fill:#F09101;}
	.st7{fill:none;stroke:#D2D2D9;stroke-width:3;stroke-linecap:round;stroke-miterlimit:10;}
	.st8{fill:#CB7C01;}
	.st9{fill:#6D6D70;}
	.st10{fill:#935606;}
	.st11{fill:#1A1E24;}
	.st12{fill:#343C47;}
	.st13{opacity:0.33;fill:#ADADB3;}
</style>
<g id="BACKGROUND">
</g>
<g id="OBJECTS">
	<g>
		<g>
			<polygon class="st0" points="430.4,192.4 428.5,207.7 451.5,205.9 444.6,194.7 			"/>
			<polygon class="st1" points="590.7,198.2 590.2,206.7 439.2,203.3 432.6,203.2 426.9,196.6 438.6,195.4 430.4,192.4 			"/>
			<polygon class="st2" points="439.2,203.3 432.6,203.2 426.9,196.6 438.6,195.4 			"/>
			<polygon class="st3" points="426.9,196.6 573.3,200 582.4,363.1 399,351.4 			"/>
			<polygon class="st4" points="607.3,194 442.8,212.3 443.5,216.2 602.8,196.9 			"/>
			<polygon class="st5" points="453.8,211.7 602.8,196.9 632.5,361.9 456.6,377.6 			"/>
			<polygon class="st6" points="571.9,389.8 416.1,389.8 431.1,209.7 586.9,209.7 			"/>
			<polyline class="st7" points="477.6,218.6 485.4,171.5 530.2,165.7 530.6,219.2 			"/>
			<polygon class="st8" points="571.9,389.8 586.1,382.5 603.5,389.8 588.7,209.7 586.9,209.7 			"/>
			<g>
				<line class="st9" x1="545.4" y1="312.9" x2="542.2" y2="320.6"/>
			</g>
			<polygon class="st10" points="603.5,389.8 571.9,389.8 587,381.6 			"/>
			<polygon class="st11" points="651.7,348.4 632.5,361.9 630.4,350.3 602.8,196.8 607.3,194 			"/>
			<polygon class="st12" points="651.7,348.4 632.5,361.9 630.4,350.3 			"/>
			<g>
				<path class="st13" d="M514.2,281.9"/>
				<path class="st13" d="M468.6,291.4"/>
			</g>
		</g>
	</g>
</g>
</svg>
